name D:\school\WTK\thesis\model\3dpredictsim\Results\MidTarsalJoint\Fal_s1_bCst_PF_Gefen2002_ls150_MT_nl_Gefen2002_MTP_Mf1_spx10_ig23.mot
datacolumns 128
datarows 4
range 0.53491507 0.56700997
endheader
time	pelvis_tilt	pelvis_list	pelvis_rotation	pelvis_tx	pelvis_ty	pelvis_tz	hip_flexion_l	hip_adduction_l	hip_rotation_l	hip_flexion_r	hip_adduction_r	hip_rotation_r	knee_angle_l	knee_angle_r	ankle_angle_l	ankle_angle_r	subtalar_angle_l	subtalar_angle_r	mtj_angle_l	mtj_angle_r	mtp_angle_l	mtp_angle_r	lumbar_extension	lumbar_bending	lumbar_rotation	arm_flex_l	arm_add_l	arm_rot_l	arm_flex_r	arm_add_r	arm_rot_r	elbow_flex_l	elbow_flex_r	pro_sup_l	pro_sup_r	glut_med1_l/activation	glut_med2_l/activation	glut_med3_l/activation	glut_min1_l/activation	glut_min2_l/activation	glut_min3_l/activation	semimem_l/activation	semiten_l/activation	bifemlh_l/activation	bifemsh_l/activation	sar_l/activation	add_long_l/activation	add_brev_l/activation	add_mag1_l/activation	add_mag2_l/activation	add_mag3_l/activation	tfl_l/activation	pect_l/activation	grac_l/activation	glut_max1_l/activation	glut_max2_l/activation	glut_max3_l/activation	iliacus_l/activation	psoas_l/activation	quad_fem_l/activation	gem_l/activation	peri_l/activation	rect_fem_l/activation	vas_med_l/activation	vas_int_l/activation	vas_lat_l/activation	med_gas_l/activation	lat_gas_l/activation	soleus_l/activation	tib_post_l/activation	flex_dig_l/activation	flex_hal_l/activation	tib_ant_l/activation	per_brev_l/activation	per_long_l/activation	per_tert_l/activation	ext_dig_l/activation	ext_hal_l/activation	ercspn_l/activation	intobl_l/activation	extobl_l/activation	glut_med1_r/activation	glut_med2_r/activation	glut_med3_r/activation	glut_min1_r/activation	glut_min2_r/activation	glut_min3_r/activation	semimem_r/activation	semiten_r/activation	bifemlh_r/activation	bifemsh_r/activation	sar_r/activation	add_long_r/activation	add_brev_r/activation	add_mag1_r/activation	add_mag2_r/activation	add_mag3_r/activation	tfl_r/activation	pect_r/activation	grac_r/activation	glut_max1_r/activation	glut_max2_r/activation	glut_max3_r/activation	iliacus_r/activation	psoas_r/activation	quad_fem_r/activation	gem_r/activation	peri_r/activation	rect_fem_r/activation	vas_med_r/activation	vas_int_r/activation	vas_lat_r/activation	med_gas_r/activation	lat_gas_r/activation	soleus_r/activation	tib_post_r/activation	flex_dig_r/activation	flex_hal_r/activation	tib_ant_r/activation	per_brev_r/activation	per_long_r/activation	per_tert_r/activation	ext_dig_r/activation	ext_hal_r/activation	ercspn_r/activation	intobl_r/activation	extobl_r/activation	
          0.53491507	         -2.91710414	          2.26359937	         -6.00399782	          0.66864383	          0.91238679	          0.00165878	         28.89983859	          4.47272663	          1.10752432	        -15.04621410	         -0.26204338	          9.14387275	        -15.98889740	        -15.34279094	        -12.03973742	        -13.63212483	        -10.55562739	         -5.12791109	         -6.10425691	         16.96581046	         -1.88236215	         16.25378834	          0.07993162	         -0.20057391	          1.57950616	         -7.40443637	        -13.44970758	         12.99666079	          4.67850887	        -13.48040897	         16.94269180	         13.68767590	         27.88521555	         86.51662706	         86.51662706	          0.07624424	          0.05891521	          0.05000003	          0.05891642	          0.05891525	          0.05891423	          0.25426287	          0.05000008	          0.05000003	          0.05000154	          0.05000040	          0.09638313	          0.17008043	          0.15624562	          0.13140469	          0.13091931	          0.05000006	          0.05000075	          0.07333967	          0.05891523	          0.12774688	          0.05000009	          0.05000002	          0.05000002	          0.11447450	          0.05000384	          0.05825993	          0.05000014	          0.06942037	          0.11251110	          0.09920810	          0.05000000	          0.05000000	          0.05000000	          0.35622539	          0.05000017	          0.05000018	          0.23724183	          0.06481165	          0.05000000	          0.33531354	          0.69854171	          0.24702571	          0.05891525	          0.13381836	          0.12077510	          0.37172355	          0.09367325	          0.06942013	          0.30554260	          0.18187855	          0.09647080	          0.05000021	          0.05000002	          0.05000001	          0.05000003	          0.08298511	          0.08184030	          0.05000006	          0.05000006	          0.05000017	          0.05000004	          0.29941676	          0.07134864	          0.05000010	          0.05000028	          0.05000015	          0.05000009	          0.31137127	          0.53650049	          0.05000002	          0.05000014	          0.05891529	          0.18440113	          0.06442914	          0.06603775	          0.06098414	          0.28954517	          0.37908123	          0.37558846	          0.33294441	          0.43238273	          0.57817600	          0.08317848	          0.17963109	          0.19431704	          0.05000003	          0.05000000	          0.05000001	          0.05000000	          0.05000000	          0.05000000	
          0.54561337	         -2.90374065	          2.37168652	         -6.18682750	          0.68532960	          0.91216692	          0.00139447	         28.32209478	          4.84367967	          1.25092561	        -14.92128216	         -0.51348616	          8.94060894	        -16.89457498	        -17.13855897	        -11.13680066	        -14.03269504	        -11.43342821	         -4.06431594	         -5.45876213	         14.74974892	         -1.84380992	         19.61632137	          0.31266985	         -0.42705839	          1.60855131	         -8.29997184	        -13.45295275	         13.00193902	          4.31081504	        -13.50597403	         17.16269545	         13.66139238	         28.68754597	         86.51662706	         86.51662706	          0.13789396	          0.05000003	          0.24929670	          0.05000104	          0.05000009	          0.05000005	          0.21578698	          0.05000005	          0.05401565	          0.05000002	          0.05000040	          0.08179815	          0.17880652	          0.18978420	          0.17289340	          0.14819688	          0.05000004	          0.05891640	          0.09084890	          0.05000008	          0.16211261	          0.12973555	          0.05891523	          0.05000097	          0.23361893	          0.05000019	          0.14493779	          0.05000001	          0.05891547	          0.09548556	          0.08419561	          0.09638305	          0.09556900	          0.07768752	          0.35503557	          0.06850333	          0.06463963	          0.20134161	          0.11671224	          0.08179820	          0.28457281	          0.59283607	          0.20964497	          0.05000001	          0.11356853	          0.10249901	          0.31547313	          0.07949831	          0.05891525	          0.25930689	          0.15435609	          0.08187252	          0.05000032	          0.05000007	          0.05000014	          0.05000002	          0.07042754	          0.13800343	          0.21066882	          0.05891512	          0.05000085	          0.14870109	          0.25410803	          0.07736451	          0.05000037	          0.05000036	          0.05000021	          0.05000017	          0.26425354	          0.45531546	          0.05000008	          0.05000024	          0.05000005	          0.15649694	          0.07846968	          0.08225718	          0.07485137	          0.24573046	          0.33154369	          0.33211285	          0.28256217	          0.36695316	          0.49068451	          0.23141320	          0.27606122	          0.19935820	          0.44548858	          0.05000015	          0.05000000	          0.06902964	          0.05000000	          0.05000003	
          0.55631167	         -2.88871086	          2.48420462	         -6.33498819	          0.70201998	          0.91202665	          0.00111359	         27.65622591	          5.22167822	          1.42812686	        -14.62550888	         -0.74541890	          8.73762146	        -17.91564536	        -19.18676014	        -10.05420041	        -14.51029757	        -12.29120451	         -3.02347258	         -4.27731792	         12.44108572	         -1.75706959	         22.78033759	          0.53897570	         -0.67015004	          1.63149931	         -9.15639563	        -13.46058883	         13.02793849	          3.92544268	        -13.53184252	         17.36834779	         13.63945068	         29.42665574	         86.51662706	         86.51662706	          0.22939895	          0.22820486	          0.37543929	          0.05000010	          0.05000029	          0.05000061	          0.18313338	          0.06333715	          0.05000005	          0.06326440	          0.05000012	          0.06942020	          0.15174894	          0.16106556	          0.16790413	          0.16597793	          0.05000003	          0.05000110	          0.08605951	          0.21797918	          0.21454234	          0.16171947	          0.05000001	          0.05000001	          0.38777017	          0.08628543	          0.12300538	          0.05000000	          0.05000022	          0.08103822	          0.07347541	          0.08179806	          0.08110722	          0.08468246	          0.44081611	          0.11801664	          0.05485817	          0.17087393	          0.09905096	          0.06942022	          0.24151032	          0.50312616	          0.18828713	          0.05709841	          0.09638296	          0.08698852	          0.26773473	          0.06746836	          0.05000001	          0.22006774	          0.13099842	          0.06948331	          0.05000115	          0.05000005	          0.05000005	          0.05000002	          0.05977023	          0.14831566	          0.41481715	          0.05000015	          0.05000206	          0.14381834	          0.21565558	          0.06565755	          0.05000011	          0.05000022	          0.05000014	          0.05000013	          0.22426582	          0.38641565	          0.05000001	          0.05000007	          0.05000001	          0.13281530	          0.09265924	          0.09897198	          0.08767876	          0.20854573	          0.28686922	          0.28390850	          0.25467691	          0.31142460	          0.41643251	          0.31119373	          0.29724591	          0.16919068	          0.62998176	          0.19387070	          0.05000001	          0.09076360	          0.05000000	          0.05000000	
          0.56700997	         -2.87506927	          2.60158463	         -6.44795367	          0.71842819	          0.91207862	          0.00079756	         26.98011149	          5.61263006	          1.60851618	        -14.12775157	         -0.95042630	          8.53861137	        -18.86147520	        -21.49320771	         -9.04152452	        -15.05801619	        -13.14803793	         -2.03755933	         -2.95137231	         10.11863677	         -1.79930431	         25.38197767	          0.73359789	         -0.92580971	          1.64801442	         -9.91358301	        -13.46727480	         13.10126688	          3.57313842	        -13.55030095	         17.56670678	         13.58325948	         30.06693571	         86.51662706	         86.51662706	          0.32839793	          0.37092985	          0.54568686	          0.05000012	          0.05000012	          0.17550436	          0.15542103	          0.08302164	          0.06537420	          0.05369113	          0.05000003	          0.05891531	          0.12878583	          0.21382899	          0.20614615	          0.17608114	          0.05000002	          0.05000060	          0.11374302	          0.30555598	          0.25943758	          0.19489724	          0.05000000	          0.05000000	          0.34953667	          0.08179833	          0.14741148	          0.05000000	          0.12985835	          0.17368048	          0.14977451	          0.06942011	          0.06883381	          0.07186803	          0.48897470	          0.18248731	          0.05000004	          0.15220679	          0.08406224	          0.05891532	          0.20496419	          0.42699144	          0.25834190	          0.08666584	          0.08179798	          0.07382513	          0.22722024	          0.05725883	          0.05000000	          0.18676637	          0.11117531	          0.05896887	          0.05000266	          0.05000006	          0.05000006	          0.05000001	          0.05072562	          0.17780633	          0.45904988	          0.32419259	          0.13902471	          0.13381837	          0.18302191	          0.05572209	          0.05000005	          0.05000018	          0.05000010	          0.05000015	          0.19032918	          0.34436215	          0.05000000	          0.05000003	          0.05000000	          0.11271725	          0.09021297	          0.09638286	          0.08179990	          0.17698790	          0.24345926	          0.24094652	          0.25214398	          0.26429880	          0.35341656	          0.31791642	          0.25226568	          0.14358819	          0.53465086	          0.29855139	          0.22548895	          0.10949906	          0.05000000	          0.05000000	
